<svg xmlns="http://www.w3.org/2000/svg" width="512" height="512" viewBox="0 0 64 64" shape-rendering="geometricPrecision"><defs><linearGradient id="appbg" x1="0" y1="0" x2="0" y2="1"><stop offset="0" stop-color="#1b2440"/><stop offset="1" stop-color="#0b0f1c"/></linearGradient></defs><rect width="64" height="64" fill="url(#appbg)"/><rect width="64" height="2.2" fill="#fff" opacity=".08"/><ellipse cx="32" cy="55" rx="17" ry="3.4" fill="#000" opacity=".26"/><g transform="translate(8,7) scale(3)"><rect x="4" y="0" width="1.03" height="1.03" fill="#6fcf7c"/><rect x="5" y="0" width="1.03" height="1.03" fill="#6fcf7c"/><rect x="10" y="0" width="1.03" height="1.03" fill="#6fcf7c"/><rect x="11" y="0" width="1.03" height="1.03" fill="#6fcf7c"/><rect x="3" y="1" width="1.03" height="1.03" fill="#6fcf7c"/><rect x="4" y="1" width="1.03" height="1.03" fill="#3f9550"/><rect x="5" y="1" width="1.03" height="1.03" fill="#6fcf7c"/><rect x="6" y="1" width="1.03" height="1.03" fill="#6fcf7c"/><rect x="9" y="1" width="1.03" height="1.03" fill="#6fcf7c"/><rect x="10" y="1" width="1.03" height="1.03" fill="#6fcf7c"/><rect x="11" y="1" width="1.03" height="1.03" fill="#3f9550"/><rect x="12" y="1" width="1.03" height="1.03" fill="#6fcf7c"/><rect x="4" y="2" width="1.03" height="1.03" fill="#6fcf7c"/><rect x="5" y="2" width="1.03" height="1.03" fill="#6fcf7c"/><rect x="6" y="2" width="1.03" height="1.03" fill="#6fcf7c"/><rect x="7" y="2" width="1.03" height="1.03" fill="#3f9550"/><rect x="8" y="2" width="1.03" height="1.03" fill="#3f9550"/><rect x="9" y="2" width="1.03" height="1.03" fill="#6fcf7c"/><rect x="10" y="2" width="1.03" height="1.03" fill="#6fcf7c"/><rect x="11" y="2" width="1.03" height="1.03" fill="#6fcf7c"/><rect x="7" y="3" width="1.03" height="1.03" fill="#3f9550"/><rect x="8" y="3" width="1.03" height="1.03" fill="#3f9550"/><rect x="3" y="4" width="1.03" height="1.03" fill="#e6a536"/><rect x="4" y="4" width="1.03" height="1.03" fill="#e6a536"/><rect x="5" y="4" width="1.03" height="1.03" fill="#e6a536"/><rect x="6" y="4" width="1.03" height="1.03" fill="#e6a536"/><rect x="7" y="4" width="1.03" height="1.03" fill="#e6a536"/><rect x="8" y="4" width="1.03" height="1.03" fill="#e6a536"/><rect x="9" y="4" width="1.03" height="1.03" fill="#e6a536"/><rect x="10" y="4" width="1.03" height="1.03" fill="#e6a536"/><rect x="11" y="4" width="1.03" height="1.03" fill="#e6a536"/><rect x="12" y="4" width="1.03" height="1.03" fill="#e6a536"/><rect x="2" y="5" width="1.03" height="1.03" fill="#e6a536"/><rect x="3" y="5" width="1.03" height="1.03" fill="#e6a536"/><rect x="4" y="5" width="1.03" height="1.03" fill="#e6a536"/><rect x="5" y="5" width="1.03" height="1.03" fill="#e6a536"/><rect x="6" y="5" width="1.03" height="1.03" fill="#e6a536"/><rect x="7" y="5" width="1.03" height="1.03" fill="#e6a536"/><rect x="8" y="5" width="1.03" height="1.03" fill="#e6a536"/><rect x="9" y="5" width="1.03" height="1.03" fill="#e6a536"/><rect x="10" y="5" width="1.03" height="1.03" fill="#e6a536"/><rect x="11" y="5" width="1.03" height="1.03" fill="#e6a536"/><rect x="12" y="5" width="1.03" height="1.03" fill="#e6a536"/><rect x="13" y="5" width="1.03" height="1.03" fill="#e6a536"/><rect x="1" y="6" width="1.03" height="1.03" fill="#ffd770"/><rect x="2" y="6" width="1.03" height="1.03" fill="#ffd770"/><rect x="3" y="6" width="1.03" height="1.03" fill="#e6a536"/><rect x="4" y="6" width="1.03" height="1.03" fill="#e6a536"/><rect x="5" y="6" width="1.03" height="1.03" fill="#e6a536"/><rect x="6" y="6" width="1.03" height="1.03" fill="#e6a536"/><rect x="7" y="6" width="1.03" height="1.03" fill="#e6a536"/><rect x="8" y="6" width="1.03" height="1.03" fill="#e6a536"/><rect x="9" y="6" width="1.03" height="1.03" fill="#e6a536"/><rect x="10" y="6" width="1.03" height="1.03" fill="#e6a536"/><rect x="11" y="6" width="1.03" height="1.03" fill="#e6a536"/><rect x="12" y="6" width="1.03" height="1.03" fill="#e6a536"/><rect x="13" y="6" width="1.03" height="1.03" fill="#e6a536"/><rect x="14" y="6" width="1.03" height="1.03" fill="#e6a536"/><rect x="1" y="7" width="1.03" height="1.03" fill="#ffd770"/><rect x="2" y="7" width="1.03" height="1.03" fill="#e6a536"/><rect x="3" y="7" width="1.03" height="1.03" fill="#e6a536"/><rect x="4" y="7" width="1.03" height="1.03" fill="#e6a536"/><rect x="5" y="7" width="1.03" height="1.03" fill="#f4ecd2"/><rect x="6" y="7" width="1.03" height="1.03" fill="#10182b"/><rect x="7" y="7" width="1.03" height="1.03" fill="#e6a536"/><rect x="8" y="7" width="1.03" height="1.03" fill="#e6a536"/><rect x="9" y="7" width="1.03" height="1.03" fill="#f4ecd2"/><rect x="10" y="7" width="1.03" height="1.03" fill="#10182b"/><rect x="11" y="7" width="1.03" height="1.03" fill="#e6a536"/><rect x="12" y="7" width="1.03" height="1.03" fill="#e6a536"/><rect x="13" y="7" width="1.03" height="1.03" fill="#e6a536"/><rect x="14" y="7" width="1.03" height="1.03" fill="#e6a536"/><rect x="1" y="8" width="1.03" height="1.03" fill="#e6a536"/><rect x="2" y="8" width="1.03" height="1.03" fill="#e6a536"/><rect x="3" y="8" width="1.03" height="1.03" fill="#ff9b6b"/><rect x="4" y="8" width="1.03" height="1.03" fill="#e6a536"/><rect x="5" y="8" width="1.03" height="1.03" fill="#10182b"/><rect x="6" y="8" width="1.03" height="1.03" fill="#10182b"/><rect x="7" y="8" width="1.03" height="1.03" fill="#e6a536"/><rect x="8" y="8" width="1.03" height="1.03" fill="#e6a536"/><rect x="9" y="8" width="1.03" height="1.03" fill="#10182b"/><rect x="10" y="8" width="1.03" height="1.03" fill="#10182b"/><rect x="11" y="8" width="1.03" height="1.03" fill="#e6a536"/><rect x="12" y="8" width="1.03" height="1.03" fill="#ff9b6b"/><rect x="13" y="8" width="1.03" height="1.03" fill="#e6a536"/><rect x="14" y="8" width="1.03" height="1.03" fill="#e6a536"/><rect x="1" y="9" width="1.03" height="1.03" fill="#e6a536"/><rect x="2" y="9" width="1.03" height="1.03" fill="#e6a536"/><rect x="3" y="9" width="1.03" height="1.03" fill="#e6a536"/><rect x="4" y="9" width="1.03" height="1.03" fill="#e6a536"/><rect x="5" y="9" width="1.03" height="1.03" fill="#e6a536"/><rect x="6" y="9" width="1.03" height="1.03" fill="#e6a536"/><rect x="7" y="9" width="1.03" height="1.03" fill="#7a4412"/><rect x="8" y="9" width="1.03" height="1.03" fill="#7a4412"/><rect x="9" y="9" width="1.03" height="1.03" fill="#e6a536"/><rect x="10" y="9" width="1.03" height="1.03" fill="#e6a536"/><rect x="11" y="9" width="1.03" height="1.03" fill="#e6a536"/><rect x="12" y="9" width="1.03" height="1.03" fill="#e6a536"/><rect x="13" y="9" width="1.03" height="1.03" fill="#e6a536"/><rect x="14" y="9" width="1.03" height="1.03" fill="#e6a536"/><rect x="1" y="10" width="1.03" height="1.03" fill="#e6a536"/><rect x="2" y="10" width="1.03" height="1.03" fill="#e6a536"/><rect x="3" y="10" width="1.03" height="1.03" fill="#e6a536"/><rect x="4" y="10" width="1.03" height="1.03" fill="#e6a536"/><rect x="5" y="10" width="1.03" height="1.03" fill="#e6a536"/><rect x="6" y="10" width="1.03" height="1.03" fill="#e6a536"/><rect x="7" y="10" width="1.03" height="1.03" fill="#e6a536"/><rect x="8" y="10" width="1.03" height="1.03" fill="#e6a536"/><rect x="9" y="10" width="1.03" height="1.03" fill="#e6a536"/><rect x="10" y="10" width="1.03" height="1.03" fill="#e6a536"/><rect x="11" y="10" width="1.03" height="1.03" fill="#e6a536"/><rect x="12" y="10" width="1.03" height="1.03" fill="#e6a536"/><rect x="13" y="10" width="1.03" height="1.03" fill="#c98a22"/><rect x="14" y="10" width="1.03" height="1.03" fill="#c98a22"/><rect x="2" y="11" width="1.03" height="1.03" fill="#e6a536"/><rect x="3" y="11" width="1.03" height="1.03" fill="#e6a536"/><rect x="4" y="11" width="1.03" height="1.03" fill="#e6a536"/><rect x="5" y="11" width="1.03" height="1.03" fill="#e6a536"/><rect x="6" y="11" width="1.03" height="1.03" fill="#e6a536"/><rect x="7" y="11" width="1.03" height="1.03" fill="#e6a536"/><rect x="8" y="11" width="1.03" height="1.03" fill="#e6a536"/><rect x="9" y="11" width="1.03" height="1.03" fill="#e6a536"/><rect x="10" y="11" width="1.03" height="1.03" fill="#e6a536"/><rect x="11" y="11" width="1.03" height="1.03" fill="#e6a536"/><rect x="12" y="11" width="1.03" height="1.03" fill="#c98a22"/><rect x="13" y="11" width="1.03" height="1.03" fill="#c98a22"/><rect x="2" y="12" width="1.03" height="1.03" fill="#c98a22"/><rect x="3" y="12" width="1.03" height="1.03" fill="#e6a536"/><rect x="4" y="12" width="1.03" height="1.03" fill="#e6a536"/><rect x="5" y="12" width="1.03" height="1.03" fill="#e6a536"/><rect x="6" y="12" width="1.03" height="1.03" fill="#e6a536"/><rect x="7" y="12" width="1.03" height="1.03" fill="#e6a536"/><rect x="8" y="12" width="1.03" height="1.03" fill="#e6a536"/><rect x="9" y="12" width="1.03" height="1.03" fill="#e6a536"/><rect x="10" y="12" width="1.03" height="1.03" fill="#e6a536"/><rect x="11" y="12" width="1.03" height="1.03" fill="#e6a536"/><rect x="12" y="12" width="1.03" height="1.03" fill="#c98a22"/><rect x="13" y="12" width="1.03" height="1.03" fill="#c98a22"/><rect x="3" y="13" width="1.03" height="1.03" fill="#c98a22"/><rect x="4" y="13" width="1.03" height="1.03" fill="#e6a536"/><rect x="5" y="13" width="1.03" height="1.03" fill="#e6a536"/><rect x="6" y="13" width="1.03" height="1.03" fill="#e6a536"/><rect x="7" y="13" width="1.03" height="1.03" fill="#e6a536"/><rect x="8" y="13" width="1.03" height="1.03" fill="#e6a536"/><rect x="9" y="13" width="1.03" height="1.03" fill="#e6a536"/><rect x="10" y="13" width="1.03" height="1.03" fill="#e6a536"/><rect x="11" y="13" width="1.03" height="1.03" fill="#c98a22"/><rect x="12" y="13" width="1.03" height="1.03" fill="#c98a22"/><rect x="4" y="14" width="1.03" height="1.03" fill="#8a5a1e"/><rect x="5" y="14" width="1.03" height="1.03" fill="#8a5a1e"/><rect x="10" y="14" width="1.03" height="1.03" fill="#8a5a1e"/><rect x="11" y="14" width="1.03" height="1.03" fill="#8a5a1e"/></g><g opacity=".96"><rect x="36" y="36" width="22.5" height="20" rx="4" fill="#0d1220"/><rect x="36" y="36" width="22.5" height="20" rx="4" fill="none" stroke="#6fcf7c" stroke-opacity=".35" stroke-width="1"/><rect x="36" y="36" width="22.5" height="4.6" rx="4" fill="#1c2742"/><rect x="36" y="38.5" width="22.5" height="2.1" fill="#1c2742"/><circle cx="39.4" cy="38.3" r=".9" fill="#ff9b6b"/><circle cx="42.2" cy="38.3" r=".9" fill="#ffd770"/><circle cx="45" cy="38.3" r=".9" fill="#6fcf7c"/><g stroke="#6fcf7c" stroke-width="1.7" fill="none" stroke-linecap="round" stroke-linejoin="round"><path d="M38.8 44.5 L41 46.7 L38.8 48.9"/></g><g shape-rendering="crispEdges" transform="translate(42.4,44.2) scale(1.0)"><rect x="1" y="0" width="1.03" height="1.03" fill="#6fcf7c"/><rect x="2" y="0" width="1.03" height="1.03" fill="#6fcf7c"/><rect x="3" y="0" width="1.03" height="1.03" fill="#6fcf7c"/><rect x="6" y="0" width="1.03" height="1.03" fill="#6fcf7c"/><rect x="9" y="0" width="1.03" height="1.03" fill="#6fcf7c"/><rect x="0" y="1" width="1.03" height="1.03" fill="#6fcf7c"/><rect x="8" y="1" width="1.03" height="1.03" fill="#6fcf7c"/><rect x="9" y="1" width="1.03" height="1.03" fill="#6fcf7c"/><rect x="10" y="1" width="1.03" height="1.03" fill="#6fcf7c"/><rect x="0" y="2" width="1.03" height="1.03" fill="#6fcf7c"/><rect x="3" y="2" width="1.03" height="1.03" fill="#6fcf7c"/><rect x="4" y="2" width="1.03" height="1.03" fill="#6fcf7c"/><rect x="6" y="2" width="1.03" height="1.03" fill="#6fcf7c"/><rect x="9" y="2" width="1.03" height="1.03" fill="#6fcf7c"/><rect x="0" y="3" width="1.03" height="1.03" fill="#6fcf7c"/><rect x="4" y="3" width="1.03" height="1.03" fill="#6fcf7c"/><rect x="6" y="3" width="1.03" height="1.03" fill="#6fcf7c"/><rect x="9" y="3" width="1.03" height="1.03" fill="#6fcf7c"/><rect x="1" y="4" width="1.03" height="1.03" fill="#6fcf7c"/><rect x="2" y="4" width="1.03" height="1.03" fill="#6fcf7c"/><rect x="3" y="4" width="1.03" height="1.03" fill="#6fcf7c"/><rect x="6" y="4" width="1.03" height="1.03" fill="#6fcf7c"/><rect x="9" y="4" width="1.03" height="1.03" fill="#6fcf7c"/><rect x="10" y="4" width="1.03" height="1.03" fill="#6fcf7c"/></g><rect x="43" y="51.4" width="7" height="1.7" fill="#6fcf7c" opacity=".85"/></g></svg>
