<svg xmlns="http://www.w3.org/2000/svg" viewBox="0 0 1280 320" width="1280" height="320">
  <defs>
    

    
    <pattern id="grid" width="40" height="40" patternUnits="userSpaceOnUse">
      <path d="M40 0L0 0 0 40" fill="none" stroke="#1a2035" stroke-width="0.5"></path>
    </pattern>

    
    <filter id="glow">
      <feGaussianBlur stdDeviation="3" result="coloredBlur"></feGaussianBlur>
      <feMerge><feMergeNode in="coloredBlur"></feMergeNode><feMergeNode in="SourceGraphic"></feMergeNode></feMerge>
    </filter>
  </defs>

  
  <rect width="1280" height="320" fill="#0d1220"></rect>
  <rect width="1280" height="320" fill="url(#grid)" opacity="0.6"></rect>

  
  <line x1="0" y1="0" x2="1280" y2="0" stroke="#e6a536" stroke-width="2" opacity="0.18"></line>
  <line x1="0" y1="319" x2="1280" y2="319" stroke="#e6a536" stroke-width="2" opacity="0.18"></line>

  
  <defs>
    <linearGradient id="fadeL" x1="0" x2="1" y1="0" y2="0">
      <stop offset="0%" stop-color="#0d1220" stop-opacity="1"></stop>
      <stop offset="100%" stop-color="#0d1220" stop-opacity="0"></stop>
    </linearGradient>
    <linearGradient id="fadeR" x1="0" x2="1" y1="0" y2="0">
      <stop offset="0%" stop-color="#0d1220" stop-opacity="0"></stop>
      <stop offset="100%" stop-color="#0d1220" stop-opacity="1"></stop>
    </linearGradient>
  </defs>
  <rect x="0" y="0" width="80" height="320" fill="url(#fadeL)"></rect>
  <rect x="1200" y="0" width="80" height="320" fill="url(#fadeR)"></rect>

  

  

  
  <line class="branch-line b0" x1="204" y1="72" x2="204" y2="252" stroke="#e6a536" stroke-width="2.5" stroke-linecap="round"></line>

  
  <path class="branch-line b1" d="M204 184 C204 210 244 210 244 184 L244 128" stroke="#5fb8e6" stroke-width="2" stroke-linecap="round" fill="none"></path>

  
  <path class="branch-line b2" d="M204 240 C204 256 164 256 164 240 L164 184" stroke="#ff6b6b" stroke-width="2" stroke-linecap="round" fill="none"></path>

  
  <path class="branch-line b3" d="M244 128 C244 104 204 104 204 128" stroke="#5fb8e6" stroke-width="2" stroke-linecap="round" fill="none" opacity="0.6"></path>

  
  <path class="branch-line b4" d="M164 184 C164 166 204 166 204 184" stroke="#ff6b6b" stroke-width="2" stroke-linecap="round" fill="none" opacity="0.6"></path>

  
  
  <g class="leaf lf0">
    <rect x="183" y="42" width="7" height="7" fill="#6fcf7c"></rect>
    <rect x="191" y="36" width="7" height="7" fill="#6fcf7c"></rect>
    <rect x="199" y="32" width="7" height="7" fill="#6fcf7c"></rect>
    <rect x="207" y="32" width="7" height="7" fill="#6fcf7c"></rect>
    <rect x="215" y="36" width="7" height="7" fill="#6fcf7c"></rect>
    <rect x="222" y="42" width="7" height="7" fill="#6fcf7c"></rect>
    <rect x="187" y="50" width="7" height="7" fill="#6fcf7c" opacity=".7"></rect>
    <rect x="218" y="50" width="7" height="7" fill="#6fcf7c" opacity=".7"></rect>
  </g>
  
  <g class="leaf lf1">
    <rect x="234" y="110" width="6" height="6" fill="#5fb8e6" opacity=".5"></rect>
    <rect x="241" y="105" width="6" height="6" fill="#5fb8e6" opacity=".5"></rect>
    <rect x="249" y="110" width="6" height="6" fill="#5fb8e6" opacity=".5"></rect>
    <rect x="238" y="116" width="6" height="6" fill="#5fb8e6" opacity=".35"></rect>
  </g>
  
  <g class="leaf lf2">
    <rect x="154" y="168" width="6" height="6" fill="#ff6b6b" opacity=".45"></rect>
    <rect x="161" y="163" width="6" height="6" fill="#ff6b6b" opacity=".45"></rect>
    <rect x="169" y="168" width="6" height="6" fill="#ff6b6b" opacity=".45"></rect>
  </g>

  

  
  <circle class="pulse" cx="204" cy="72" r="10" fill="none" stroke="#ffd770"></circle>
  <g class="node n0" style="transform-origin:204px 72px">
    <rect x="194" y="62" width="20" height="20" rx="4" fill="#ffd770" filter="url(#glow)"></rect>
    <rect x="198" y="66" width="12" height="12" rx="2" fill="#c98a22"></rect>
  </g>

  
  <g class="node n0" style="transform-origin:204px 72px">
    <rect x="218" y="63" width="68" height="16" rx="8" fill="#e6a536"></rect>
    <text class="head-label" x="252" y="74.5" text-anchor="middle">HEAD · main</text>
  </g>

  
  <g class="node n1" style="transform-origin:204px 128px">
    <rect x="194" y="118" width="20" height="20" rx="4" fill="#e6a536"></rect>
    <circle cx="204" cy="128" r="4" fill="#0d1220"></circle>
  </g>

  
  <g class="node n2" style="transform-origin:244px 128px">
    <rect x="234" y="118" width="20" height="20" rx="4" fill="#5fb8e6"></rect>
    <rect x="238" y="122" width="12" height="12" rx="2" fill="#3a8fb5"></rect>
  </g>

  
  <g class="node n3" style="transform-origin:204px 184px">
    <rect x="194" y="174" width="20" height="20" rx="4" fill="#e6a536"></rect>
  </g>

  
  <g class="node n4" style="transform-origin:164px 184px">
    <rect x="154" y="174" width="20" height="20" rx="4" fill="#ff6b6b"></rect>
    <rect x="158" y="178" width="12" height="12" rx="2" fill="#c04040"></rect>
  </g>

  
  <g class="node n5" style="transform-origin:204px 240px">
    <rect x="194" y="230" width="20" height="20" rx="4" fill="#e6a536"></rect>
  </g>

  
  <g class="node n6" style="transform-origin:204px 240px">
    <rect x="218" y="231" width="44" height="16" rx="8" fill="rgba(111,207,124,.15)" stroke="#6fcf7c" stroke-width="1"></rect>
    <text font-family="&#39;IBM Plex Mono&#39;,monospace" font-size="10" fill="#6fcf7c" x="240" y="242.5" text-anchor="middle">v1.0.0</text>
  </g>

  
  <text font-family="&#39;IBM Plex Mono&#39;,monospace" font-size="10" fill="#4a5273" x="218" y="133">a1b2c3d</text>
  <text font-family="&#39;IBM Plex Mono&#39;,monospace" font-size="10" fill="#4a5273" x="258" y="133">e5f6g7h</text>
  <text font-family="&#39;IBM Plex Mono&#39;,monospace" font-size="10" fill="#4a5273" x="218" y="189">h8i9j0k</text>
  <text font-family="&#39;IBM Plex Mono&#39;,monospace" font-size="10" fill="#4a5273" x="143" y="189">j0k1l2m</text>

  
  <line x1="480" y1="40" x2="480" y2="280" stroke="#232a44" stroke-width="1"></line>

  

  
  <g transform="translate(516, 100) scale(0.28)">
    <rect width="200" height="200" rx="38" fill="#161d30" stroke="#e6a536" stroke-width="2" opacity="0.9"></rect>
    <rect x="97" y="38" width="6" height="128" fill="#e6a536"></rect>
    <rect x="60" y="108" width="37" height="6" fill="#e6a536"></rect>
    <rect x="60" y="60" width="6" height="54" fill="#e6a536"></rect>
    <rect x="103" y="108" width="37" height="6" fill="#e6a536"></rect>
    <rect x="134" y="60" width="6" height="54" fill="#e6a536"></rect>
    <rect x="92" y="152" width="16" height="16" rx="3" fill="#e6a536"></rect>
    <rect x="92" y="102" width="16" height="16" rx="3" fill="#e6a536"></rect>
    <rect x="92" y="30" width="16" height="16" rx="3" fill="#ffd770"></rect>
    <rect x="52" y="52" width="16" height="16" rx="3" fill="#e6a536"></rect>
    <rect x="132" y="52" width="16" height="16" rx="3" fill="#e6a536"></rect>
    <rect x="40" y="32" width="9" height="9" fill="#6fcf7c"></rect>
    <rect x="51" y="26" width="9" height="9" fill="#6fcf7c"></rect>
    <rect x="62" y="22" width="9" height="9" fill="#6fcf7c"></rect>
    <rect x="44" y="42" width="9" height="9" fill="#6fcf7c" opacity=".75"></rect>
    <rect x="55" y="36" width="9" height="9" fill="#6fcf7c" opacity=".75"></rect>
    <rect x="142" y="32" width="9" height="9" fill="#6fcf7c"></rect>
    <rect x="131" y="26" width="9" height="9" fill="#6fcf7c"></rect>
    <rect x="120" y="22" width="9" height="9" fill="#6fcf7c"></rect>
    <rect x="138" y="42" width="9" height="9" fill="#6fcf7c" opacity=".75"></rect>
    <rect x="84" y="12" width="9" height="9" fill="#6fcf7c"></rect>
    <rect x="95" y="7" width="9" height="9" fill="#6fcf7c"></rect>
    <rect x="106" y="12" width="9" height="9" fill="#6fcf7c"></rect>
    <rect x="89" y="21" width="9" height="9" fill="#6fcf7c" opacity=".8"></rect>
    <rect x="101" y="21" width="9" height="9" fill="#6fcf7c" opacity=".8"></rect>
  </g>

  
  <text class="logo-text" x="578" y="162">GitGrove</text>

  
  <text class="tagline" x="578" y="190">A modern dark-mode Git GUI for macOS</text>

  
  
  <rect x="578" y="210" width="74" height="22" rx="11" fill="#161d30" stroke="#2d3551" stroke-width="1"></rect>
  <text class="badge-text" x="615" y="224.5" fill="#b8c0d8" text-anchor="middle">macOS</text>

  
  <rect x="660" y="210" width="58" height="22" rx="11" fill="rgba(111,207,124,.1)" stroke="rgba(111,207,124,.35)" stroke-width="1"></rect>
  <text class="badge-text" x="689" y="224.5" fill="#6fcf7c" text-anchor="middle">MIT</text>

  
  <rect x="726" y="210" width="60" height="22" rx="11" fill="rgba(95,184,230,.1)" stroke="rgba(95,184,230,.35)" stroke-width="1"></rect>
  <text class="badge-text" x="756" y="224.5" fill="#5fb8e6" text-anchor="middle">React 18</text>

  
  <rect x="794" y="210" width="72" height="22" rx="11" fill="rgba(195,154,217,.1)" stroke="rgba(195,154,217,.35)" stroke-width="1"></rect>
  <text class="badge-text" x="830" y="224.5" fill="#c39ad9" text-anchor="middle">Electron</text>

  
  <rect x="874" y="210" width="82" height="22" rx="11" fill="rgba(95,184,230,.1)" stroke="rgba(95,184,230,.35)" stroke-width="1"></rect>
  <text class="badge-text" x="915" y="224.5" fill="#5fb8e6" text-anchor="middle">TypeScript</text>

  
  <rect x="4" y="4" width="4" height="4" fill="#e6a536" opacity=".4"></rect>
  <rect x="4" y="10" width="4" height="4" fill="#e6a536" opacity=".2"></rect>
  <rect x="10" y="4" width="4" height="4" fill="#e6a536" opacity=".2"></rect>
  <rect x="1272" y="4" width="4" height="4" fill="#e6a536" opacity=".4"></rect>
  <rect x="1272" y="10" width="4" height="4" fill="#e6a536" opacity=".2"></rect>
  <rect x="1266" y="4" width="4" height="4" fill="#e6a536" opacity=".2"></rect>
  <rect x="4" y="312" width="4" height="4" fill="#e6a536" opacity=".4"></rect>
  <rect x="1272" y="312" width="4" height="4" fill="#e6a536" opacity=".4"></rect>
</svg>